#!OML:ASF G:\ViconDB\ViconDB\414\test\team2\shane.ASF
:FULLY-SPECIFIED
:DEGREES
345
root 1.2556 16.7357 23.6854 -8.8179 4.9 -4.72149
lowerback 7.63536 -1.74869 -0.817682
upperback 5.25115 -2.37106 1.13792
thorax 1.22956 -1.22633 1.78021
lowerneck -6.5698 -5.31047 -12.5315
upperneck 43.9023 -2.79459 -5.54784
head 17.7327 -3.95905 -0.821067
rclavicle -1.41634e-014 6.75868e-015
rhumerus -35.0527 24.718 -63.4879
rradius 117.885
rwrist -6.30335
rhand -24.8697 -15.0476
rfingers 7.12502
rthumb 1.63745 -45.0211
lclavicle -6.4605e-015 3.97569e-016
lhumerus -47.3473 -33.7228 99.3637
lradius 43.6396
lwrist -15.4823
lhand -37.9255 5.20426
lfingers 7.12502
lthumb -10.9674 34.8978
rfemur -18.9263 -18.1914 18.3832
rtibia 39.7295
rfoot -19.7014 4.30833
rtoes -13.9763
lfemur 23.0405 3.42677 -9.12186
ltibia 8.17941
lfoot -23.9548 -9.26365
ltoes -11.0973
346
root 1.23186 16.7564 23.9046 -8.40524 5.76776 -4.61115
lowerback 7.28889 -2.01959 -1.01616
upperback 5.06425 -2.74099 1.20999
thorax 1.25423 -1.41664 1.97814
lowerneck -6.99284 -5.22539 -12.502
upperneck 43.0537 -2.81162 -5.15766
head 17.3282 -3.87836 -0.610223
rclavicle 2.17172e-014 -1.98785e-015
rhumerus -34.7293 19.7423 -61.9763
rradius 120.186
rwrist -5.23678
rhand -25.7701 -16.0693
rfingers 7.12502
rthumb 0.767795 -46.0476
lclavicle -6.4605e-015 3.97569e-016
lhumerus -47.3473 -33.7228 99.3637
lradius 43.6396
lwrist -15.4823
lhand -37.9255 5.20426
lfingers 7.12502
lthumb -10.9674 34.8978
rfemur -19.3677 -17.7827 18.0701
rtibia 36.9648
rfoot -19.6205 4.57453
rtoes -14.8896
lfemur 26.9455 2.65998 -9.36165
ltibia 3.81667e-014
lfoot -19.7178 -9.74284
ltoes -10.9679
347
root 1.20513 16.7711 24.1218 -7.97541 6.75809 -4.53326
lowerback 7.22631 -2.27248 -1.27142
upperback 4.65377 -3.08955 1.40175
thorax 0.903725 -1.59361 2.34603
lowerneck -7.17176 -5.23305 -12.455
upperneck 42.2444 -2.85973 -5.14213
head 16.9022 -3.85438 -0.579103
rclavicle -3.59303e-014 3.97569e-015
rhumerus -34.7466 17.1593 -61.0389
rradius 121.466
rwrist -5.14732
rhand -25.8367 -16.6104
rfingers 7.12502
rthumb 0.703453 -46.589
lclavicle -3.59303e-014 3.97569e-015
lhumerus -49.1764 -32.7263 100.165
lradius 44.4878
lwrist -13.9993
lhand -37.3396 5.23792
lfingers 7.12502
lthumb -10.4023 34.9606
rfemur -19.8544 -16.7874 17.6353
rtibia 34.6718
rfoot -19.9472 4.10191
rtoes -14.1215
lfemur 27.0259 1.74551 -9.50294
ltibia -1.90833e-014
lfoot -19.997 -9.51108
ltoes -11.6995
348
root 1.17973 16.7634 24.3349 -7.58783 7.7556 -4.56877
lowerback 7.2063 -2.49255 -1.31368
upperback 4.29282 -3.38194 1.60944
thorax 0.571898 -1.73684 2.61014
lowerneck -7.27291 -5.19159 -12.6554
upperneck 41.2677 -3.01156 -4.57537
head 16.3973 -3.83131 -0.26901
rclavicle -4.87022e-015 5.36719e-015
rhumerus -34.4466 14.6737 -59.7224
rradius 122.92
rwrist -7.48067
rhand -25.7305 -16.4452
rfingers 7.12502
rthumb 0.806023 -46.4234
lclavicle -4.87022e-015 5.36719e-015
lhumerus -49.8563 -32.5442 100.661
lradius 44.767
lwrist -13.5265
lhand -37.2703 5.11341
lfingers 7.12502
lthumb -10.3354 34.8394
rfemur -20.3413 -15.9801 17.3234
rtibia 32.8703
rfoot -21.0252 2.86728
rtoes -14.0067
lfemur 27.1527 0.799514 -9.51265
ltibia -1.59028e-014
lfoot -20.2845 -9.21912
ltoes -11.5074
349
root 1.15313 16.7467 24.5464 -7.33376 8.76148 -4.62556
lowerback 7.31675 -2.79537 -1.54325
upperback 4.00787 -3.79618 1.8578
thorax 0.272738 -1.94508 3.03482
lowerneck -7.55784 -5.16136 -12.4891
upperneck 40.2579 -3.04742 -4.4999
head 15.9108 -3.76903 -0.231579
rclavicle 1.07716e-014 -2.50469e-014
rhumerus -34.4466 14.6737 -59.7224
rradius 122.92
rwrist -7.48067
rhand -25.7305 -16.4452
rfingers 7.12502
rthumb 0.806023 -46.4234
lclavicle 1.07716e-014 -2.50469e-014
lhumerus -50.4101 -32.2448 101.016
lradius 45.0557
lwrist -12.9384
lhand -37.1628 5.22785
lfingers 7.12502
lthumb -10.2317 34.959
rfemur -20.799 -15.8342 17.0258
rtibia 31.5659
rfoot -22.0096 2.12435
rtoes -14.4879
lfemur 27.3892 -0.181657 -9.48716
ltibia 2.54444e-014
lfoot -20.6799 -8.88145
ltoes -12.5996
350
root 1.13024 16.7301 24.7519 -7.11201 9.69675 -4.70584
lowerback 7.52378 -2.98346 -1.52914
upperback 3.73433 -4.04177 2.11623
thorax -0.0898194 -2.06259 3.33155
lowerneck -7.75191 -5.17149 -12.5764
upperneck 39.2139 -3.23188 -4.06061
head 15.4262 -3.75582 -0.0186042
rclavicle -1.36043e-014 -2.19657e-014
rhumerus -34.4466 14.6737 -59.7224
rradius 122.92
rwrist -7.48067
rhand -25.7305 -16.4452
rfingers 7.12502
rthumb 0.806023 -46.4234
lclavicle -1.36043e-014 -2.19657e-014
lhumerus -50.793 -32.2511 101.523
lradius 45.1863
lwrist -12.3522
lhand -37.0004 5.20075
lfingers 7.12502
lthumb -10.0751 34.9396
rfemur -21.3398 -16.2847 16.8016
rtibia 30.7212
rfoot -22.6841 2.03844
rtoes -14.9219
lfemur 27.6303 -1.10931 -9.40161
ltibia -7.31528e-014
lfoot -21.0321 -8.70614
ltoes -13.219
351
root 1.10347 16.6991 24.9515 -6.99534 10.8661 -4.63442
lowerback 7.85977 -3.29583 -1.82641
upperback 3.48642 -4.4754 2.23993
thorax -0.467235 -2.27578 3.68695
lowerneck -7.79509 -5.11063 -12.066
upperneck 38.1089 -3.30176 -4.09676
head 14.8525 -3.67036 -0.0873566
rclavicle -5.26935e-014 2.3556e-014
rhumerus -34.4466 14.6737 -59.7224
rradius 122.92
rwrist -7.48067
rhand -25.7305 -16.4452
rfingers 7.12502
rthumb 0.806023 -46.4234
lclavicle -5.26935e-014 2.3556e-014
lhumerus -51.3124 -32.3272 101.782
lradius 45.1598
lwrist -12.6613
lhand -37.301 5.27973
lfingers 7.12502
lthumb -10.365 35.0043
rfemur -21.677 -16.8817 16.3717
rtibia 30.2677
rfoot -23.1497 1.61707
rtoes -14.9364
lfemur 27.9511 -2.2867 -9.45036
ltibia -7.95139e-014
lfoot -21.375 -8.67087
ltoes -13.6792
352
root 1.08643 16.6618 25.1547 -6.85214 11.6606 -4.50164
lowerback 8.0194 -3.43172 -1.95021
upperback 3.33133 -4.66217 2.41142
thorax -0.67604 -2.36633 3.96489
lowerneck -7.92417 -5.15374 -12.0306
upperneck 37.0185 -3.51535 -3.79934
head 14.363 -3.67207 0.0327347
rclavicle 8.7209e-015 1.17531e-014
rhumerus -34.4466 14.6737 -59.7224
rradius 122.92
rwrist -7.48067
rhand -25.7305 -16.4452
rfingers 7.12502
rthumb 0.806023 -46.4234
lclavicle -5.26935e-014 2.3556e-014
lhumerus -51.3124 -32.3272 101.782
lradius 45.1598
lwrist -12.6613
lhand -37.301 5.27973
lfingers 7.12502
lthumb -10.365 35.0043
rfemur -21.9983 -17.3025 15.9224
rtibia 30.0935
rfoot -23.3389 1.44051
rtoes -15.155
lfemur 28.3909 -3.07076 -9.55675
ltibia -3.81667e-014
lfoot -21.7917 -8.43702
ltoes -14.7615
353
root 1.05908 16.6225 25.3506 -6.81567 12.5678 -4.5809
lowerback 8.3242 -3.58517 -1.97323
upperback 3.28151 -4.86521 2.60512
thorax -0.858937 -2.46541 4.21868
lowerneck -8.35733 -5.23012 -11.5353
upperneck 36.037 -3.71584 -3.81102
head 13.9793 -3.65379 -0.0631052
rclavicle -1.46945e-014 9.49197e-015
rhumerus -34.4466 14.6737 -59.7224
rradius 122.92
rwrist -7.48067
rhand -25.7305 -16.4452
rfingers 7.12502
rthumb 0.806023 -46.4234
lclavicle -5.26935e-014 2.3556e-014
lhumerus -51.3124 -32.3272 101.782
lradius 45.1598
lwrist -12.6613
lhand -37.301 5.27973
lfingers 7.12502
lthumb -10.365 35.0043
rfemur -22.0328 -17.3429 15.6499
rtibia 30.0872
rfoot -23.5971 0.882969
rtoes -15.0755
lfemur 28.8057 -4.01112 -9.44497
ltibia -9.54166e-015
lfoot -22.1706 -8.05896
ltoes -15.6425
354
root 1.03445 16.5793 25.5495 -6.93133 13.2031 -4.81931
lowerback 8.50758 -3.6559 -1.78493
upperback 3.30393 -4.93926 2.89395
thorax -0.919797 -2.50218 4.43225
lowerneck -8.55071 -5.2964 -11.4422
upperneck 35.0017 -3.94124 -3.54722
head 13.5568 -3.66434 0.0213076
rclavicle 8.32038e-014 1.74931e-014
rhumerus -34.4466 14.6737 -59.7224
rradius 122.92
rwrist -7.48067
rhand -25.7305 -16.4452
rfingers 7.12502
rthumb 0.806023 -46.4234
lclavicle -5.26935e-014 2.3556e-014
lhumerus -51.3124 -32.3272 101.782
lradius 45.1598
lwrist -12.6613
lhand -37.301 5.27973
lfingers 7.12502
lthumb -10.365 35.0043
rfemur -21.8321 -17.0985 15.5422
rtibia 30.25
rfoot -23.587 0.89167
rtoes -14.6754
lfemur 29.4163 -4.75025 -9.10097
ltibia 8.90555e-014
lfoot -22.3848 -7.78494
ltoes -16.9923
